<svg viewBox="0 0 118 25" fill="none" xmlns="http://www.w3.org/2000/svg">
<path d="M-0.000183105 0.0891266V12.2702V24.4514L12.2765 12.2702L-0.000183105 0.0891266Z" fill="url(#paint0_linear_10721_13668)"/>
<path d="M15.5751 8.99876L10.6176 6.13679L-0.000183105 0V0.0903098L12.2765 12.2714L15.5751 8.99876Z" fill="url(#paint1_linear_10721_13668)"/>
<path d="M-0.000183105 24.4519V24.5401L10.6176 18.4054L15.5729 15.5413L12.2765 12.2708L-0.000183105 24.4519Z" fill="url(#paint2_linear_10721_13668)"/>
<path d="M15.573 8.99742L12.2745 12.2701L15.5709 15.5406L21.2354 12.2701L15.573 8.99742Z" fill="url(#paint3_linear_10721_13668)"/>
<path d="M29.0519 6.52C29.9509 6.52 30.7675 6.11633 31.0243 5.38239V6.40991H31.7491V3.5567H29.2629V4.18055H31.0243C30.9234 5.17138 30.2262 5.85028 29.1436 5.85028C27.8959 5.85028 27.0519 4.96037 27.0519 3.52918C27.0519 2.09799 27.8867 1.1989 29.0702 1.1989C30.2354 1.1989 30.9143 1.89615 30.9785 2.9512L31.7399 2.90533C31.639 1.42826 30.6941 0.520004 29.061 0.520004C27.4647 0.520004 26.2354 1.74019 26.2354 3.52C26.2354 5.31817 27.4188 6.52 29.0519 6.52Z" fill="#1B1C20"/>
<path d="M35.8269 4.98789C35.6617 5.60257 35.2672 5.92367 34.5975 5.92367C33.8819 5.92367 33.3223 5.37322 33.2856 4.5934H36.4783V4.29065C36.4783 3.1989 35.8269 2.29065 34.5517 2.29065C33.3957 2.29065 32.5241 3.1989 32.5241 4.46496C32.5241 5.71267 33.3957 6.52 34.5883 6.52C35.5883 6.52 36.2581 5.96955 36.4599 5.06129L35.8269 4.98789ZM33.3039 4.09799C33.3957 3.43744 33.8269 2.86863 34.5517 2.86863C35.3131 2.86863 35.6709 3.45578 35.6984 4.09799H33.3039Z" fill="#1B1C20"/>
<path d="M37.4072 5.47413C37.4072 6.25395 37.8109 6.52 38.3797 6.52C38.8201 6.52 39.1136 6.40074 39.4072 6.18055V5.66679C39.1779 5.79523 38.9118 5.90533 38.6549 5.90533C38.3063 5.90533 38.1595 5.74019 38.1595 5.38239V2.9512H39.288V2.40074H38.1595V1.29065H37.7283L37.6091 1.85028C37.5173 2.2356 37.4348 2.41909 37.0586 2.49248L36.8017 2.53835V2.9512H37.4072V5.47413Z" fill="#1B1C20"/>
<path d="M41.7224 2.40074V6.40991H42.4838V2.40074H41.7224ZM41.704 1.49248H42.493V0.630096H41.704V1.49248Z" fill="#1B1C20"/>
<path d="M43.6608 5.47413C43.6608 6.25395 44.0645 6.52 44.6333 6.52C45.0737 6.52 45.3672 6.40074 45.6608 6.18055V5.66679C45.4315 5.79523 45.1654 5.90533 44.9085 5.90533C44.5599 5.90533 44.4131 5.74019 44.4131 5.38239V2.9512H45.5415V2.40074H44.4131V1.29065H43.9819L43.8626 1.85028C43.7709 2.2356 43.6883 2.41909 43.3122 2.49248L43.0553 2.53835V2.9512H43.6608V5.47413Z" fill="#1B1C20"/>
<path d="M48.4989 4.40991C48.4989 3.51083 48.9484 2.88698 49.7558 2.88698C50.5723 2.88698 51.031 3.51083 51.031 4.40991C51.031 5.29982 50.5723 5.93285 49.7558 5.93285C48.9484 5.93285 48.4989 5.29982 48.4989 4.40991ZM51.8108 4.40991C51.8108 3.16221 50.9393 2.29065 49.7558 2.29065C48.5815 2.29065 47.7191 3.16221 47.7191 4.40991C47.7191 5.65762 48.5815 6.52 49.7558 6.52C50.9393 6.52 51.8108 5.65762 51.8108 4.40991Z" fill="#1B1C20"/>
<path d="M53.3604 4.10716C53.3604 3.37322 53.8375 2.89615 54.443 2.89615C55.076 2.89615 55.3971 3.31817 55.3971 3.98789V6.40991H56.1586V3.92367C56.1586 2.98789 55.7366 2.29065 54.6907 2.29065C54.0944 2.29065 53.5531 2.6301 53.3604 3.11633V2.40074H52.599V6.40991H53.3604V4.10716Z" fill="#1B1C20"/>
<path d="M31.8604 21.0421C33.4045 21.0421 34.728 20.5274 35.353 19.3693V20.8215H37.7979V14.884H32.3934V16.906H35.1692C34.7648 18.0457 33.6802 18.6891 32.4118 18.6891C30.2979 18.6891 29.103 17.2369 29.103 15.031C29.103 12.8803 30.2611 11.4832 32.1912 11.4832C33.864 11.4832 34.8567 12.4207 35.0037 13.8729L37.7243 13.781C37.467 10.8582 35.5001 9.02 32.1361 9.02C28.8273 9.02 26.2354 11.4649 26.2354 15.031C26.2354 18.6156 28.6434 21.0421 31.8604 21.0421Z" fill="#1B1C20"/>
<path d="M41.7182 16.7406C41.7182 15.3803 42.2513 14.4428 43.4277 14.4428C44.5858 14.4428 45.1557 15.3803 45.1557 16.7406C45.1557 18.1009 44.5858 19.0384 43.4277 19.0384C42.2513 19.0384 41.7182 18.1009 41.7182 16.7406ZM47.8395 16.7406C47.8395 14.2222 46.038 12.4391 43.4277 12.4391C40.8174 12.4391 39.0344 14.2222 39.0344 16.7406C39.0344 19.2774 40.8174 21.0421 43.4277 21.0421C46.038 21.0421 47.8395 19.2774 47.8395 16.7406Z" fill="#1B1C20"/>
<path d="M51.394 16.7406C51.394 15.3803 51.9271 14.4428 53.1036 14.4428C54.2617 14.4428 54.8315 15.3803 54.8315 16.7406C54.8315 18.1009 54.2617 19.0384 53.1036 19.0384C51.9271 19.0384 51.394 18.1009 51.394 16.7406ZM57.5154 16.7406C57.5154 14.2222 55.7139 12.4391 53.1036 12.4391C50.4933 12.4391 48.7102 14.2222 48.7102 16.7406C48.7102 19.2774 50.4933 21.0421 53.1036 21.0421C55.7139 21.0421 57.5154 19.2774 57.5154 16.7406Z" fill="#1B1C20"/>
<path d="M66.2918 15.2332C66.2918 14.8104 66.1815 14.4428 65.9977 14.1119C66.4021 14.0016 66.88 13.9465 67.2661 13.9465V11.906C66.3837 11.906 65.5197 12.4575 65.0418 13.1193C64.3616 12.6781 63.4241 12.4391 62.4315 12.4391C60.1888 12.4391 58.5896 13.5053 58.5896 15.2332C58.5896 16.1156 59.0124 16.8325 59.7477 17.3104C58.9021 17.6229 58.3874 18.2296 58.3874 18.9832C58.3874 19.6818 58.8102 20.3068 59.5455 20.5457C58.608 20.6377 57.9646 21.2259 57.9646 21.9796C57.9646 23.5053 59.9315 24.02 62.2293 24.02C64.8396 24.02 67.2661 23.1193 67.2661 21.0788C67.2661 19.7369 66.3286 18.7627 64.5087 18.7627H61.1631C60.63 18.7627 60.4094 18.5237 60.4094 18.2112C60.4094 18.009 60.5013 17.8619 60.63 17.7516C61.1631 17.9171 61.7697 18.009 62.4315 18.009C64.6741 18.009 66.2918 16.9428 66.2918 15.2332ZM60.2256 21.6671C60.2256 21.2443 60.5565 21.0421 60.9793 21.0421H63.8653C64.4719 21.0421 64.8028 21.1891 64.8028 21.6303C64.8028 22.2369 63.7183 22.5494 62.2477 22.5494C61.0528 22.5494 60.2256 22.3104 60.2256 21.6671ZM63.5528 15.2332C63.5528 16.0604 63.0933 16.5384 62.4499 16.5384C61.8249 16.5384 61.3653 16.0604 61.3653 15.2332C61.3653 14.4244 61.8249 13.9649 62.4499 13.9649C63.0933 13.9649 63.5528 14.4244 63.5528 15.2332Z" fill="#1B1C20"/>
<path d="M68.1445 9.24059V20.8215H70.7916V9.24059H68.1445Z" fill="#1B1C20"/>
<path d="M78.3703 17.9354C78.0762 18.6891 77.5063 19.0384 76.5872 19.0384C75.5578 19.0384 74.749 18.4134 74.6754 17.3288H80.5578V16.52C80.5578 14.2957 79.1423 12.4391 76.4401 12.4391C73.9401 12.4391 72.0651 14.2957 72.0651 16.8693C72.0651 19.4612 73.9034 21.0421 76.4953 21.0421C78.6276 21.0421 80.0798 19.9943 80.5026 18.1377L78.3703 17.9354ZM74.7122 15.9134C74.8593 15.0494 75.3556 14.3693 76.4218 14.3693C77.4328 14.3693 77.9475 15.1046 78.0026 15.9134H74.7122Z" fill="#1B1C20"/>
<path d="M88.0118 14.8104V11.4832H90.0155C91.5412 11.4832 92.1662 12.0715 92.1662 13.156C92.1662 14.2406 91.5412 14.8104 90.0155 14.8104H88.0118ZM88.0118 17.0531H90.1258C93.1221 17.0531 94.8684 15.6377 94.8684 13.1377C94.8684 10.6377 93.1221 9.24059 90.1258 9.24059H85.2361V20.8215H88.0118V17.0531Z" fill="#1B1C20"/>
<path d="M95.9155 9.24059V20.8215H98.5626V9.24059H95.9155Z" fill="#1B1C20"/>
<path d="M105.093 17.3656C105.093 18.5237 104.321 19.259 103.347 19.259C102.777 19.259 102.41 18.9649 102.41 18.4869C102.41 17.8435 102.924 17.6413 103.752 17.4759L105.093 17.2002V17.3656ZM107.704 15.6193C107.704 13.395 106.178 12.4391 104.046 12.4391C101.711 12.4391 100.406 13.6524 100.13 15.3987L102.593 15.5825C102.741 14.9024 103.127 14.4244 103.899 14.4244C104.707 14.4244 105.093 14.884 105.093 15.656V15.8031L102.814 16.2075C101.013 16.5568 99.8361 17.2185 99.8361 18.781C99.8361 20.1781 100.866 21.0053 102.502 21.0053C103.77 21.0053 104.781 20.509 105.241 19.5715C105.48 20.4906 106.196 21.0053 107.171 21.0053C107.98 21.0053 108.494 20.7663 108.899 20.4722V19.0568C108.66 19.1671 108.457 19.2038 108.218 19.2038C107.888 19.2038 107.704 19.02 107.704 18.5972V15.6193Z" fill="#1B1C20"/>
<path d="M113.294 23.7994L117.982 12.6597H115.371L113.368 17.7516H113.294L111.327 12.6597H108.533L111.879 20.895L110.684 23.7994H113.294Z" fill="#1B1C20"/>
<defs>
<linearGradient id="paint0_linear_10721_13668" x1="6.13769" y1="0.0880945" x2="6.13769" y2="24.4509" gradientUnits="userSpaceOnUse">
<stop stop-color="#257CB0"/>
<stop offset="0.2863" stop-color="#4A93B5"/>
<stop offset="0.767" stop-color="#78BCBB"/>
<stop offset="1" stop-color="#89CFBD"/>
</linearGradient>
<linearGradient id="paint1_linear_10721_13668" x1="-0.00106416" y1="6.13578" x2="15.5741" y2="6.13578" gradientUnits="userSpaceOnUse">
<stop stop-color="#52C1AD"/>
<stop offset="1" stop-color="#DEE89A"/>
</linearGradient>
<linearGradient id="paint2_linear_10721_13668" x1="7.78639" y1="12.2702" x2="7.78639" y2="24.5401" gradientUnits="userSpaceOnUse">
<stop stop-color="#EC413D"/>
<stop offset="0.1668" stop-color="#DA4452"/>
<stop offset="0.5748" stop-color="#B0487A"/>
<stop offset="0.8619" stop-color="#954A92"/>
<stop offset="1" stop-color="#8A4A9D"/>
</linearGradient>
<linearGradient id="paint3_linear_10721_13668" x1="16.755" y1="8.99757" x2="16.755" y2="15.5411" gradientUnits="userSpaceOnUse">
<stop stop-color="#F58879"/>
<stop offset="0.1194" stop-color="#F69079"/>
<stop offset="0.7128" stop-color="#FCB877"/>
<stop offset="1" stop-color="#FEC874"/>
</linearGradient>
</defs>
</svg>
