<svg viewBox="0 0 107 26" fill="none" xmlns="http://www.w3.org/2000/svg">
<path d="M21.7144 19.005C21.1387 20.2825 20.8633 20.8523 20.1207 21.9816C19.086 23.5576 17.6258 25.5218 15.8192 25.5385C14.213 25.5531 13.7999 24.4927 11.62 24.5052C9.44006 24.5177 8.9853 25.5573 7.37903 25.5426C5.5725 25.5259 4.18945 23.7538 3.15476 22.1757C0.259312 17.7672 -0.0410812 12.5927 1.7425 9.84362C3.01082 7.88777 5.01135 6.7439 6.89298 6.7439C8.80798 6.7439 10.0137 7.79592 11.597 7.79592C13.1345 7.79592 14.0711 6.7439 16.2844 6.7439C17.9595 6.7439 19.7327 7.65607 20.9968 9.23412C16.856 11.5031 17.5298 17.4228 21.7144 19.005Z" fill="#1B1C20"/>
<path d="M14.6044 4.98338C15.4096 3.95013 16.0208 2.48898 15.7976 0.998611C14.4834 1.08837 12.9459 1.9254 12.0468 3.01709C11.2312 4.00858 10.5595 5.47599 10.8202 6.90375C12.2575 6.94758 13.7428 6.08968 14.6044 4.98338Z" fill="#1B1C20"/>
<path d="M29.5309 7.5207C30.43 7.5207 31.2465 7.11703 31.5034 6.38308V7.41061H32.2282V4.5574H29.7419V5.18125H31.5034C31.4025 6.17207 30.7052 6.85097 29.6227 6.85097C28.375 6.85097 27.5309 5.96107 27.5309 4.52987C27.5309 3.09868 28.3658 2.1996 29.5493 2.1996C30.7144 2.1996 31.3933 2.89685 31.4575 3.95189L32.219 3.90602C32.1181 2.42896 31.1731 1.5207 29.5401 1.5207C27.9438 1.5207 26.7144 2.74088 26.7144 4.5207C26.7144 6.31886 27.8979 7.5207 29.5309 7.5207Z" fill="#1B1C20"/>
<path d="M36.3059 5.98859C36.1408 6.60327 35.7463 6.92437 35.0766 6.92437C34.361 6.92437 33.8014 6.37391 33.7647 5.59409H36.9573V5.29134C36.9573 4.1996 36.3059 3.29134 35.0307 3.29134C33.8748 3.29134 33.0032 4.1996 33.0032 5.46565C33.0032 6.71336 33.8748 7.5207 35.0674 7.5207C36.0674 7.5207 36.7371 6.97024 36.939 6.06198L36.3059 5.98859ZM33.783 5.09868C33.8748 4.43813 34.3059 3.86932 35.0307 3.86932C35.7922 3.86932 36.15 4.45648 36.1775 5.09868H33.783Z" fill="#1B1C20"/>
<path d="M37.8863 6.47483C37.8863 7.25464 38.29 7.5207 38.8588 7.5207C39.2991 7.5207 39.5927 7.40143 39.8863 7.18125V6.66749C39.6569 6.79593 39.3909 6.90602 39.134 6.90602C38.7854 6.90602 38.6386 6.74088 38.6386 6.38308V3.95189H39.767V3.40143H38.6386V2.29134H38.2074L38.0881 2.85097C37.9964 3.23629 37.9138 3.41978 37.5377 3.49318L37.2808 3.53905V3.95189H37.8863V6.47483Z" fill="#1B1C20"/>
<path d="M42.2014 3.40143V7.41061H42.9629V3.40143H42.2014ZM42.1831 2.49318H42.9721V1.63079H42.1831V2.49318Z" fill="#1B1C20"/>
<path d="M44.1399 6.47483C44.1399 7.25464 44.5435 7.5207 45.1124 7.5207C45.5527 7.5207 45.8463 7.40143 46.1399 7.18125V6.66749C45.9105 6.79593 45.6445 6.90602 45.3876 6.90602C45.039 6.90602 44.8922 6.74088 44.8922 6.38308V3.95189H46.0206V3.40143H44.8922V2.29134H44.461L44.3417 2.85097C44.25 3.23629 44.1674 3.41978 43.7913 3.49318L43.5344 3.53905V3.95189H44.1399V6.47483Z" fill="#1B1C20"/>
<path d="M48.978 5.41061C48.978 4.51152 49.4275 3.88767 50.2348 3.88767C51.0514 3.88767 51.5101 4.51152 51.5101 5.41061C51.5101 6.30052 51.0514 6.93354 50.2348 6.93354C49.4275 6.93354 48.978 6.30052 48.978 5.41061ZM52.2899 5.41061C52.2899 4.1629 51.4183 3.29134 50.2348 3.29134C49.0605 3.29134 48.1981 4.1629 48.1981 5.41061C48.1981 6.65831 49.0605 7.5207 50.2348 7.5207C51.4183 7.5207 52.2899 6.65831 52.2899 5.41061Z" fill="#1B1C20"/>
<path d="M53.8395 5.10785C53.8395 4.37391 54.3166 3.89685 54.9221 3.89685C55.5551 3.89685 55.8762 4.31886 55.8762 4.98859V7.41061H56.6377V4.92437C56.6377 3.98859 56.2156 3.29134 55.1698 3.29134C54.5734 3.29134 54.0322 3.63079 53.8395 4.11703V3.40143H53.078V7.41061H53.8395V5.10785Z" fill="#1B1C20"/>
<path d="M31.4159 10.2446L26.7144 21.9983H29.5502L30.539 19.461H35.2779L36.2853 21.9983H39.3077L34.5689 10.2446H31.4159ZM32.8711 13.4722H32.9458L34.457 17.3341H31.3599L32.8711 13.4722Z" fill="#1B1C20"/>
<path d="M42.9026 17.7632C42.9026 16.4386 43.6675 15.5991 44.7869 15.5991C46.0556 15.5991 46.6713 16.5132 46.6713 17.8565C46.6713 19.2185 46.0556 20.1326 44.7869 20.1326C43.6675 20.1326 42.9026 19.2931 42.9026 17.9498V17.7632ZM42.9026 20.5244C43.3131 21.4946 44.2646 22.2222 45.7011 22.2222C48.1265 22.2222 49.3952 20.3005 49.3952 17.8565C49.3952 15.4311 48.1265 13.4908 45.7011 13.4908C44.2646 13.4908 43.3131 14.2185 42.9026 15.2073V13.7147H40.216V25.0207H42.9026V20.5244Z" fill="#1B1C20"/>
<path d="M53.3606 17.7632C53.3606 16.4386 54.1255 15.5991 55.2449 15.5991C56.5136 15.5991 57.1292 16.5132 57.1292 17.8565C57.1292 19.2185 56.5136 20.1326 55.2449 20.1326C54.1255 20.1326 53.3606 19.2931 53.3606 17.9498V17.7632ZM53.3606 20.5244C53.771 21.4946 54.7225 22.2222 56.1591 22.2222C58.5845 22.2222 59.8531 20.3005 59.8531 17.8565C59.8531 15.4311 58.5845 13.4908 56.1591 13.4908C54.7225 13.4908 53.771 14.2185 53.3606 15.2073V13.7147H50.674V25.0207H53.3606V20.5244Z" fill="#1B1C20"/>
<path d="M63.9806 17.8192C63.9806 20.6737 66.2194 22.2222 69.3538 22.2222C72.0403 22.2222 74.1485 20.9722 74.1485 18.5468C74.1485 16.6252 73.0478 15.4311 70.6411 15.002L68.4396 14.6103C67.5814 14.4423 67.059 14.1998 67.059 13.5282C67.059 12.7259 67.7306 12.2408 68.9247 12.2408C70.2866 12.2408 71.2381 12.9125 71.3127 14.2931L73.9247 14.2185C73.8687 11.6065 72.1336 10.0207 68.9433 10.0207C66.0888 10.0207 64.2791 11.4573 64.2791 13.7707C64.2791 15.767 65.6038 16.8117 67.4694 17.1662L69.6709 17.558C70.697 17.7632 71.3873 17.9498 71.3873 18.7334C71.3873 19.517 70.6038 20.002 69.3538 20.002C67.8985 20.002 66.6858 19.3491 66.5739 17.7259L63.9806 17.8192Z" fill="#1B1C20"/>
<path d="M75.8967 19.7782C75.8967 21.6438 77.1094 22.2222 78.4527 22.2222C79.5348 22.2222 80.2437 21.961 80.8594 21.4946V19.7222C80.3557 19.9461 79.9266 20.058 79.5161 20.058C78.8818 20.058 78.546 19.7595 78.546 19.0505V15.5991H80.7475V13.7147H78.546V11.42H76.8855L76.6057 12.5207C76.4005 13.2856 76.1579 13.7147 75.337 13.864L74.74 13.9573V15.5991H75.8967V19.7782Z" fill="#1B1C20"/>
<path d="M84.3054 17.8565C84.3054 16.4759 84.8464 15.5244 86.0404 15.5244C87.2158 15.5244 87.7942 16.4759 87.7942 17.8565C87.7942 19.2371 87.2158 20.1886 86.0404 20.1886C84.8464 20.1886 84.3054 19.2371 84.3054 17.8565ZM90.5181 17.8565C90.5181 15.3005 88.6897 13.4908 86.0404 13.4908C83.3912 13.4908 81.5815 15.3005 81.5815 17.8565C81.5815 20.4311 83.3912 22.2222 86.0404 22.2222C88.6897 22.2222 90.5181 20.4311 90.5181 17.8565Z" fill="#1B1C20"/>
<path d="M97.9516 13.8267C97.7277 13.6401 97.2986 13.4908 96.7949 13.4908C95.6755 13.4908 94.8173 14.2931 94.5001 15.2259V13.7147H91.8135V21.9983H94.5001V18.0804C94.5001 16.6438 95.2464 16.0095 96.3658 16.0095C96.9441 16.0095 97.3546 16.1028 97.7837 16.3453L97.9516 13.8267Z" fill="#1B1C20"/>
<path d="M104.706 19.0692C104.408 19.8341 103.829 20.1886 102.896 20.1886C101.852 20.1886 101.031 19.5543 100.956 18.4535H106.926V17.6326C106.926 15.3752 105.49 13.4908 102.747 13.4908C100.21 13.4908 98.3069 15.3752 98.3069 17.9871C98.3069 20.6177 100.173 22.2222 102.803 22.2222C104.967 22.2222 106.441 21.1588 106.87 19.2744L104.706 19.0692ZM100.994 17.017C101.143 16.1401 101.646 15.4498 102.729 15.4498C103.755 15.4498 104.277 16.1961 104.333 17.017H100.994Z" fill="#1B1C20"/>
</svg>
