<svg viewBox="0 0 22 23" fill="none" xmlns="http://www.w3.org/2000/svg">
<g clip-path="url(#clip0_10632_37834)">
<path d="M11.0717 0.719391C5.18671 0.719391 0.416321 5.48979 0.416321 11.3748C0.416321 17.2598 5.18671 22.0302 11.0717 22.0302C16.9567 22.0302 21.7271 17.2598 21.7271 11.3748C21.7271 5.49051 16.9567 0.720118 11.0717 0.719391ZM15.9585 16.087C15.7672 16.4011 15.3579 16.4993 15.0452 16.3081C12.5433 14.779 9.39362 14.4336 5.68477 15.2807C5.32704 15.3629 4.97077 15.1389 4.88934 14.7812C4.80718 14.4235 5.03039 14.0672 5.38884 13.9858C9.44742 13.0587 12.9294 13.4579 15.7381 15.1738C16.0508 15.3665 16.1504 15.7744 15.9585 16.087ZM17.2621 13.1867C17.0214 13.5779 16.5096 13.7 16.1191 13.4601C13.2559 11.6998 8.88902 11.1901 5.50154 12.2182C5.06238 12.3513 4.5985 12.1033 4.46472 11.6649C4.33239 11.2257 4.58033 10.7626 5.01876 10.6288C8.8883 9.45457 13.6994 10.0232 16.988 12.0444C17.3792 12.2851 17.5028 12.7962 17.2621 13.1867ZM17.3741 10.1649C13.9393 8.12546 8.27391 7.93788 4.99476 8.93253C4.46836 9.09248 3.91141 8.79511 3.75218 8.2687C3.59295 7.74229 3.8896 7.18534 4.41673 7.02539C8.18084 5.88314 14.4374 6.10344 18.3913 8.45047C18.8646 8.73185 19.0202 9.34333 18.7395 9.81593C18.4596 10.29 17.8467 10.4463 17.3741 10.1649Z" fill="#2EBD59"/>
</g>
<defs>
<clipPath id="clip0_10632_37834">
<rect width="21.3108" height="21.3108" fill="white" transform="translate(0.416016 0.71962)"/>
</clipPath>
</defs>
</svg>
