<svg width="24" height="20" viewBox="0 0 24 20" fill="none" xmlns="http://www.w3.org/2000/svg">
<path d="M7.55016 19.9321C16.6045 19.9321 21.5583 12.4288 21.5583 5.92399C21.5583 5.71305 21.5536 5.49743 21.5442 5.28649C22.5079 4.58959 23.3395 3.72638 24 2.73743C23.1025 3.13673 22.1496 3.39751 21.1739 3.51086C22.2013 2.89504 22.9705 1.9276 23.3391 0.787896C22.3726 1.36069 21.3156 1.76474 20.2134 1.98274C19.4708 1.19369 18.489 0.671245 17.4197 0.49618C16.3504 0.321115 15.2532 0.503179 14.2977 1.01423C13.3423 1.52527 12.5818 2.33683 12.1338 3.32344C11.6859 4.31005 11.5754 5.41674 11.8195 6.47243C9.86249 6.37422 7.94794 5.86583 6.19998 4.98023C4.45203 4.09462 2.90969 2.85157 1.67297 1.33165C1.0444 2.41537 0.852057 3.69777 1.13503 4.91822C1.418 6.13867 2.15506 7.20558 3.19641 7.90211C2.41463 7.87729 1.64998 7.66681 0.965625 7.28805V7.34899C0.964925 8.48628 1.3581 9.58872 2.07831 10.4689C2.79852 11.3491 3.80132 11.9527 4.91625 12.1771C4.19206 12.3753 3.43198 12.4041 2.69484 12.2615C3.00945 13.2396 3.62157 14.095 4.44577 14.7085C5.26997 15.3219 6.26512 15.6627 7.29234 15.6834C5.54842 17.0532 3.39417 17.7963 1.17656 17.7927C0.783287 17.7921 0.390399 17.768 0 17.7206C2.25286 19.1659 4.87353 19.9335 7.55016 19.9321Z" fill="#383A47"/>
</svg>
