<svg viewBox="0 0 141 31" fill="none" xmlns="http://www.w3.org/2000/svg">
<g clip-path="url(#clip0_10632_37910)">
<path fill-rule="evenodd" clip-rule="evenodd" d="M7.19007 0.939619C6.02132 1.46598 4.3907 3.15476 3.9607 4.28378C3.75653 4.82025 3.63248 8.53483 3.63248 14.1101C3.63248 24.3448 3.75746 25.0675 5.90532 27.2517C8.39347 29.7821 8.32757 29.7702 19.7189 29.7702C29.7396 29.7702 29.7765 29.7677 30.779 29.0593C31.3325 28.6684 32.1678 27.8519 32.6352 27.245L33.4853 26.1414V16.3132C33.4853 5.30924 33.4748 5.24919 31.1652 2.96174C28.8747 0.693288 28.7562 0.672148 17.8628 0.592795C10.1716 0.536727 7.92262 0.609953 7.19007 0.939619ZM12.0058 3.65601C13.217 4.46424 14.011 6.23267 13.7051 7.43982C13.5897 7.8951 13.0304 8.72816 12.4618 9.29128C11.6009 10.1439 11.2033 10.3131 10.0826 10.3042C8.46369 10.291 7.50994 9.81184 6.70933 8.60928C5.91398 7.41439 5.9511 6.03935 6.81266 4.77307C8.10483 2.87411 10.1692 2.43016 12.0058 3.65601ZM18.1722 3.23075C18.1722 3.37842 17.9782 3.65876 17.7416 3.85362C17.5046 4.04817 17.1353 4.62723 16.9209 5.1398L16.5308 6.07213L16.1558 5.0531C15.9498 4.49273 15.6775 3.79295 15.5514 3.49791C15.3518 3.0319 15.5084 2.96174 16.747 2.96174C17.531 2.96174 18.1722 3.08276 18.1722 3.23075ZM27.301 3.53314C31.7891 5.5525 32.3924 11.3548 28.4041 14.1446C27.236 14.9618 26.8412 15.0638 24.8475 15.0638C22.8834 15.0638 22.4463 14.9547 21.327 14.1867C19.9519 13.243 18.4803 10.7721 18.4835 9.41231C18.4933 4.90359 23.2692 1.71906 27.301 3.53314ZM82.5182 16.9021V26.2467H83.8961H85.2743L85.3656 24.2032C85.416 23.0791 85.5963 22.1222 85.7665 22.0772C85.9366 22.0319 86.9111 22.94 87.932 24.0957L89.7881 26.1965L91.7216 26.2216C92.7851 26.2355 93.6501 26.1432 93.6439 26.0169C93.6377 25.8908 92.3938 24.4774 90.8792 22.8765L88.1253 19.9659L90.8065 17.2851L93.4874 14.6042H91.4908H89.4942L87.3984 16.664L85.3024 18.7239V13.1407V7.55747H83.9103H82.5182V16.9021ZM106.648 16.9021V26.2467H108.04C109.051 26.2467 109.433 26.1249 109.433 25.8022C109.433 25.4367 109.666 25.4627 110.747 25.9486C116.63 28.5934 121.816 21.7559 118.021 16.3589C116.628 14.3782 112.593 13.6058 110.437 14.9073L109.433 15.5145V11.5358V7.55747H108.04H106.648V16.9021ZM120.878 16.8852V26.2467H122.43H123.981L123.899 16.9787L123.817 7.71066L122.348 7.61721L120.878 7.52377V16.8852ZM42.6113 17.6681V26.2467L46.401 26.2449C50.7959 26.2431 52.1227 25.9527 53.5975 24.6701C55.7382 22.8088 55.6955 19.7478 53.5013 17.7572C52.89 17.2027 52.5583 16.749 52.7641 16.749C53.4301 16.749 54.3644 14.8185 54.3656 13.44C54.3672 11.655 53.6664 10.4424 52.2073 9.70525C51.1641 9.17823 50.3848 9.08938 46.8 9.08938H42.6113V17.6681ZM16.7585 12.815C17.1919 13.6753 17.1869 13.728 16.6938 13.5301C15.827 13.1817 14.6753 12.83 13.7178 12.6207L12.821 12.4249L13.8771 11.7142C14.4578 11.3232 15.1387 10.6231 15.3901 10.1581L15.8471 9.31243L16.0689 10.5992C16.1908 11.307 16.5011 12.3042 16.7585 12.815ZM50.6917 12.4289C52.1849 14.2552 50.7879 15.8298 47.6739 15.8298H45.7049V13.6505V11.4712L47.9075 11.5947C49.7531 11.6979 50.2048 11.8334 50.6917 12.4289ZM8.11814 12.7874C8.99362 13.0968 9.01094 13.1343 8.4275 13.4471C8.0872 13.6294 7.4258 14.0426 6.95805 14.3656L6.10732 14.9523V13.3971C6.10732 12.0021 6.16332 11.8735 6.6487 12.1504C6.94661 12.3204 7.6077 12.607 8.11814 12.7874ZM58.3112 15.1226C57.5028 15.5685 56.8417 16.0216 56.8417 16.1303C56.8417 16.2391 57.2569 16.7219 57.7645 17.2033C58.6403 18.0345 58.7167 18.0525 59.2686 17.5578C60.158 16.7609 61.6658 16.4312 62.7346 16.8C63.5074 17.067 64.2663 17.8445 64.2663 18.37C64.2663 18.4411 63.2831 18.5897 62.0812 18.7003C59.4365 18.9438 58.093 19.4622 57.203 20.583C56.377 21.6228 56.2901 23.9296 57.0369 24.9854C58.1265 26.5262 61.0746 27.0053 63.1182 25.9735C64.0249 25.5154 64.2663 25.4832 64.2663 25.8203C64.2663 26.1214 64.6752 26.2467 65.6583 26.2467H67.0504L67.0498 21.8808C67.0495 16.8574 66.7046 15.7348 64.885 14.8347C63.1696 13.986 60.132 14.1192 58.3112 15.1226ZM73.1602 14.7412C72.6924 14.9829 72.3095 15.0509 72.3095 14.8926C72.3095 14.7338 71.6134 14.6042 70.7627 14.6042H69.216V20.4255V26.2467H70.7627H72.3095V22.4853C72.3095 19.5321 72.416 18.5732 72.8048 18.0232C73.4297 17.1399 74.5969 16.6907 75.6125 16.9432C76.8536 17.2517 77.2592 18.6731 77.2592 22.7136V26.2467H78.6513H80.0434V21.9476C80.0434 17.0391 79.7291 15.8849 78.1285 14.9186C76.9053 14.1799 74.4184 14.0911 73.1602 14.7412ZM96.2846 14.7372C95.7741 14.9654 95.078 15.3635 94.7377 15.6215C94.1275 16.0841 94.1315 16.1037 95.0265 17.0311C95.8966 17.9334 95.9644 17.9515 96.6898 17.4808C98.5609 16.2666 100.684 16.4107 101.32 17.795C101.641 18.4907 101.607 18.5075 99.4874 18.7028C96.8848 18.9423 95.5232 19.4647 94.6565 20.556C93.6699 21.7981 93.5153 23.0028 94.1717 24.3331C95.1975 26.4128 98.1676 27.1763 100.55 25.9735C101.457 25.5154 101.698 25.4832 101.698 25.8203C101.698 26.1206 102.104 26.2467 103.067 26.2467H104.436L104.263 21.5745C104.069 16.3574 103.827 15.5605 102.206 14.7988C100.904 14.1867 97.5922 14.152 96.2846 14.7372ZM128.861 14.9066C126.427 16.2146 125.226 19.0404 125.859 21.9647C126.704 25.8684 131.129 27.6935 135.054 25.7572C137.002 24.7954 137.588 23.9517 136.757 23.3058C135.415 22.2622 135.174 22.2332 134.329 23.0092C133.88 23.421 133.106 23.8462 132.609 23.9544C131.447 24.2072 129.526 23.3043 129.012 22.2638L128.633 21.4979L133.108 21.413L137.584 21.3285L137.577 19.881C137.568 17.9995 136.682 16.1083 135.378 15.1888C133.926 14.1643 130.516 14.0166 128.861 14.9066ZM15.7883 16.1359C18.9883 18.3074 19.6128 22.4559 17.1563 25.2265C14.5567 28.1589 10.3418 28.1592 7.74289 25.2278C5.07222 22.2151 5.95048 17.6736 9.55417 15.8613C11.3831 14.9416 14.2119 15.066 15.7883 16.1359ZM31.1083 17.7679L31.0105 18.4806L29.67 17.8985L28.3293 17.3164L29.67 16.4732L31.0105 15.6304L31.1083 16.3427C31.162 16.7345 31.162 17.3761 31.1083 17.7679ZM133.831 17.1837C133.99 17.2811 134.266 17.7744 134.443 18.2802L134.767 19.2H131.661H128.555L129.141 18.2042C130.026 16.6975 132.247 16.214 133.831 17.1837ZM21.8845 17.3678C22.3099 17.5051 23.0653 17.7064 23.5633 17.8155L24.4691 18.0134L23.5633 18.5973C23.0653 18.9184 22.3445 19.6298 21.9618 20.1777L21.2658 21.1743L21.2589 20.2637C21.2553 19.7628 20.9768 18.7527 20.6406 18.0182C20.0794 16.7934 20.0735 16.7015 20.57 16.9009C20.8676 17.0204 21.4591 17.2302 21.8845 17.3678ZM114.217 17.1843C115.452 17.6956 116.238 19.0214 116.238 20.594C116.238 21.4574 115.999 21.9497 115.186 22.754C113.265 24.6566 110.443 23.9238 109.74 21.3394C109.237 19.4892 110.357 17.3804 112.062 16.9692C113.07 16.7259 113.12 16.7308 114.217 17.1843ZM51.0768 19.2223C51.7058 19.712 51.892 20.1274 51.892 21.0383C51.892 22.8532 50.8776 23.4893 47.9833 23.4893H45.7049V21.0383V18.5872H47.9833C49.82 18.5872 50.4197 18.7104 51.0768 19.2223ZM29.3338 20.6418C30.2888 21.2007 31.1652 22.7025 31.1652 23.7807C31.1652 25.5439 29.1463 27.4702 27.2982 27.4702C26.007 27.4702 24.4456 26.4468 23.8504 25.2106C23.1352 23.7252 23.4913 22.2378 24.8438 21.0615C26.1127 19.958 27.882 19.7925 29.3338 20.6418ZM64.1335 21.8808C63.8496 23.0782 62.5753 24.1021 61.3691 24.1021C59.9346 24.1021 59.1761 23.4731 59.4252 22.4905C59.6646 21.5451 60.7353 21.0962 62.8302 21.0625C64.316 21.0386 64.3309 21.0478 64.1335 21.8808ZM101.519 21.8808C101.414 22.3444 100.986 23.0337 100.568 23.4127C99.24 24.6168 96.7486 24.1665 96.7486 22.7225C96.7486 21.7098 98.0318 21.0658 100.08 21.0505C101.7 21.0383 101.709 21.0432 101.519 21.8808ZM21.5992 26.691C22.1598 27.2633 21.8638 27.4723 20.4924 27.4723C19.0638 27.4723 18.7736 27.2029 19.5309 26.5804C19.7678 26.3859 20.1441 25.7909 20.3668 25.2584L20.7714 24.2902L21.0431 25.345C21.1922 25.9253 21.4424 26.5308 21.5992 26.691Z" fill="#6B7280"/>
</g>
<defs>
<clipPath id="clip0_10632_37910">
<rect width="134.666" height="30.5625" fill="white" transform="translate(2.94043 0.0513306)"/>
</clipPath>
</defs>
</svg>
