<svg width="137" height="27" viewBox="0 0 137 27" fill="none" xmlns="http://www.w3.org/2000/svg">
<g clip-path="url(#clip0_10632_37904)">
<path fill-rule="evenodd" clip-rule="evenodd" d="M14.0416 1.19288C14.0314 1.26021 14.0292 1.36316 14.0364 1.42167C14.0435 1.48017 13.8288 1.52936 13.5592 1.531C13.2894 1.5328 12.726 1.62007 12.3069 1.72499C11.8878 1.82974 11.3829 1.94887 11.1849 1.98973C10.987 2.03058 10.4898 2.24598 10.08 2.46872C9.67039 2.69131 9.3351 2.83038 9.3351 2.77792C9.3351 2.66777 8.48776 3.29009 8.04504 3.72545C7.88029 3.8874 7.65824 3.98399 7.55156 3.94018C7.44489 3.89622 7.37386 3.91665 7.39382 3.98546C7.41379 4.05425 7.15578 4.3641 6.82065 4.67412C5.93063 5.49679 5.89528 5.5365 5.69395 5.94015C5.5926 6.14297 5.44295 6.26472 5.36126 6.21062C5.27957 6.15636 5.22257 6.17271 5.23461 6.2469C5.28932 6.58503 5.19956 6.6499 4.95359 6.45037C4.72666 6.26618 4.71539 6.26814 4.87739 6.46295C5.11665 6.75073 5.12641 7.01156 4.89187 6.85631C4.77971 6.78179 4.75745 6.81169 4.8306 6.93867C4.89369 7.048 4.84615 7.2616 4.72499 7.41325C4.53769 7.6476 4.30573 8.12822 4.23701 8.42435C4.22664 8.4693 4.10929 8.76345 3.9764 9.07805C3.84335 9.39263 3.64554 9.98094 3.53657 10.3854C3.42776 10.7899 3.30797 11.2312 3.27063 11.3659C3.23314 11.5008 3.19367 12.5671 3.18285 13.7356C3.16151 16.0454 3.37624 17.2772 4.09298 18.9562C4.30513 19.4531 4.43482 19.936 4.38103 20.0292C4.32722 20.1225 4.34978 20.1787 4.43101 20.154C4.56375 20.1137 5.67749 21.5193 5.67749 21.727C5.67749 21.7735 5.95318 22.1135 6.2903 22.4822C6.62726 22.8509 6.86622 23.2166 6.82126 23.2947C6.77615 23.3728 6.81958 23.4898 6.91773 23.5549C7.02913 23.6287 7.05535 23.6025 6.98737 23.4846C6.92763 23.3808 6.92337 23.2959 6.97792 23.2959C7.15928 23.2959 7.88425 23.9716 8.08832 24.331C8.20323 24.5332 8.25565 24.5663 8.2107 24.4083C8.1476 24.1862 8.26389 24.2168 8.79972 24.5639C9.16685 24.8018 9.42701 25.0664 9.37762 25.1518C9.3284 25.2374 9.36513 25.2563 9.45947 25.1938C9.55381 25.1313 9.83803 25.195 10.091 25.3352C10.3441 25.4756 10.5689 25.5838 10.5909 25.5756C10.6127 25.5675 10.802 25.6295 11.0115 25.7133C11.6106 25.9535 12.9761 26.1696 13.4173 26.0945C13.4832 26.0832 13.5234 25.6513 13.5068 25.1344C13.49 24.6174 13.464 23.0181 13.449 21.5799C13.4307 19.8445 13.3537 18.7909 13.2201 18.4474C13.1093 18.1625 13.0585 17.8868 13.1073 17.8345C13.1561 17.7823 13.127 17.7395 13.0425 17.7395C12.8271 17.7395 12.5104 16.9377 12.6343 16.7058C12.6907 16.6002 12.6838 16.5649 12.6192 16.6274C12.4851 16.7568 11.7735 15.9114 11.7735 15.6226C11.7735 15.5179 11.7049 15.4777 11.6211 15.5332C11.5373 15.5888 11.4687 15.5563 11.4687 15.4612C11.4687 15.366 11.3719 15.2881 11.2537 15.2881C10.9612 15.2881 10.2227 14.323 10.3483 14.1051C10.4039 14.0086 10.378 13.9773 10.2904 14.0353C10.1063 14.1574 9.74567 13.7584 9.89518 13.598C9.95034 13.5389 9.92155 13.4905 9.83117 13.4905C9.7408 13.4905 9.68486 13.3618 9.70697 13.2045C9.72891 13.0471 9.6457 12.752 9.5221 12.5485C9.0047 11.6972 9.39744 8.08624 10.0358 7.82361C10.1524 7.77556 10.2142 7.678 10.173 7.60658C10.1319 7.53533 10.4065 7.12677 10.7835 6.69893C11.1604 6.27109 11.4698 5.98788 11.471 6.06959C11.4724 6.1513 11.5237 6.13561 11.5853 6.03478C11.8387 5.61985 13.7562 4.93167 14.5929 4.95537C15.2417 4.97383 16.2472 5.17681 16.5331 5.34693C16.7233 5.46019 16.9132 5.56069 16.9552 5.57033C17.2367 5.63488 17.8696 6.05145 17.8696 6.17238C17.8696 6.25311 17.9381 6.2737 18.0219 6.21814C18.1058 6.16257 18.1743 6.23187 18.1743 6.37192C18.1743 6.51197 18.2814 6.6267 18.412 6.6267C18.5426 6.6267 18.6071 6.70024 18.5553 6.79012C18.5036 6.88 18.5209 6.95354 18.5939 6.95354C18.772 6.95354 19.4443 7.94062 19.4443 8.20226C19.4443 8.31649 19.4994 8.37337 19.5668 8.32875C19.6343 8.28414 19.7305 8.45279 19.7806 8.70365C19.8308 8.95449 19.9328 9.32187 20.0073 9.51994C20.3004 10.3 19.9492 13.0349 19.4929 13.524C19.3844 13.6403 19.2814 13.79 19.2641 13.8565C19.1484 14.3025 19.0261 14.471 18.8183 14.471C18.6877 14.471 18.6259 14.5194 18.6811 14.5786C18.8306 14.7389 18.47 15.1379 18.2859 15.0158C18.1934 14.9545 18.1728 14.9899 18.2367 15.1007C18.2999 15.2103 18.2293 15.3383 18.0697 15.4039C17.5142 15.632 16.2635 17.5481 16.1454 18.3523C16.1041 18.6334 16.024 18.9437 15.9674 19.0419C15.7809 19.3654 15.8617 25.9554 16.0537 26.0825C16.2407 26.2066 17.2453 26.1441 17.3796 26.0002C17.4241 25.9524 17.5656 26.0047 17.6943 26.1163C17.8808 26.2782 17.9049 26.2778 17.8136 26.1149C17.7507 26.0026 17.7722 25.9106 17.8613 25.9106C17.9505 25.9106 18.3754 25.7286 18.8054 25.5062C19.2355 25.2836 19.6466 25.1409 19.719 25.189C19.7914 25.237 19.8507 25.186 19.8507 25.0759C19.8507 24.9657 19.8954 24.9235 19.9499 24.982C20.0045 25.0405 20.1469 24.9608 20.2661 24.8049C20.401 24.6285 20.441 24.6142 20.3718 24.7667C20.3109 24.9015 20.46 24.8191 20.7034 24.5835C20.947 24.3479 21.3519 24.0189 21.6034 23.852C21.8548 23.6851 22.0965 23.5101 22.1404 23.4631C22.6868 22.8785 23.5251 22.1228 23.4309 22.2998C23.348 22.4555 23.3666 22.491 23.4888 22.41C23.5879 22.3444 23.6519 22.2043 23.6313 22.0987C23.5876 21.8742 24.0989 20.9854 24.3811 20.7955C24.4878 20.7236 24.5752 20.5582 24.5752 20.4278C24.5752 20.2975 24.6437 20.1908 24.7276 20.1908C24.8114 20.1908 24.88 20.0895 24.88 19.9656C24.88 19.8419 24.9788 19.6526 25.0996 19.5451C25.2203 19.4378 25.2849 19.2544 25.2431 19.1378C25.2013 19.0211 25.2708 18.8145 25.3974 18.6789C25.5238 18.5431 25.5896 18.3914 25.5432 18.3419C25.4969 18.2922 25.5153 18.1547 25.5842 18.0364C25.6531 17.9179 25.7299 17.6798 25.7549 17.5071C25.7799 17.3345 25.8556 17.1139 25.923 17.0168C26.2423 16.5576 26.2514 11.7708 25.9349 10.7787C25.8229 10.4276 25.7282 10.1024 25.7247 10.0561C25.7068 9.82488 24.8056 7.65659 24.6389 7.44381C24.5333 7.30899 24.4243 7.09736 24.3967 6.97332C24.3691 6.84944 24.2094 6.58649 24.0418 6.38908C23.4835 5.7318 23.2053 5.31931 23.3193 5.31817C23.3814 5.31767 23.243 5.18335 23.0118 5.01992C22.7806 4.8565 22.6435 4.65467 22.7071 4.57165C22.7706 4.48847 22.7621 4.4731 22.6882 4.53733C22.5057 4.69602 21.9526 4.36264 22.0676 4.1631C22.1182 4.0755 22.0717 4.02402 21.9646 4.0487C21.8572 4.07337 21.7664 4.00784 21.7626 3.90292C21.7588 3.79817 21.6932 3.65109 21.6171 3.57608C21.5365 3.49698 21.5242 3.52558 21.5879 3.64423C21.6482 3.75666 21.6227 3.8485 21.5315 3.8485C21.4399 3.8485 21.3259 3.73868 21.2778 3.60435C21.2297 3.47002 21.1291 3.40073 21.0539 3.45057C20.9789 3.50025 20.9175 3.471 20.9175 3.38569C20.9175 3.30022 20.649 3.11506 20.3209 2.97436C19.9928 2.83348 19.6795 2.64049 19.6245 2.54537C19.5697 2.45026 19.461 2.41463 19.383 2.46644C19.305 2.51808 19.2411 2.48245 19.2411 2.38734C19.2411 2.29223 19.1898 2.22294 19.1269 2.23355C19.0639 2.24435 18.9783 2.23862 18.9363 2.22114C18.8513 2.18568 18.7931 2.16966 17.4592 1.81781C16.3762 1.53198 15.2754 1.37216 14.5424 1.39405C14.2278 1.40337 14.0717 1.3447 14.1322 1.23978C14.186 1.14663 14.1915 1.07031 14.1447 1.07031C14.0979 1.07031 14.0514 1.12555 14.0416 1.19288ZM42.8122 5.88803C42.4069 6.00994 42.0362 6.15179 41.988 6.20327C41.94 6.25491 41.8093 6.21569 41.6977 6.11632C41.5412 5.97709 41.4616 6.024 41.3503 6.32207C41.2711 6.53453 41.2018 6.6432 41.1964 6.56362C41.1913 6.48386 41.0072 6.6115 40.7874 6.84699C40.5678 7.08248 40.3261 7.23415 40.2501 7.18397C40.1744 7.13381 40.1313 7.16044 40.1543 7.2433C40.2187 7.47454 39.1961 8.43726 39.0142 8.31682C38.9182 8.25308 38.8991 8.2892 38.9667 8.40622C39.1074 8.65086 38.7705 9.11204 38.5552 8.9692C38.4678 8.91135 38.4417 8.94224 38.4968 9.03801C38.6489 9.30194 38.4319 9.7618 38.2003 9.66653C38.0881 9.62045 37.9491 9.66424 37.8917 9.76409C37.8236 9.88176 37.8572 9.89909 37.9868 9.81312C38.14 9.71164 38.1616 9.77276 38.0789 10.0739C38.0197 10.2901 37.9541 10.5407 37.9334 10.6306C37.9125 10.7204 37.8156 10.9497 37.7177 11.1402C37.6199 11.3307 37.5833 11.5328 37.6362 11.5897C37.689 11.6464 37.6696 11.6929 37.5927 11.6929C37.4329 11.6929 37.4118 11.9262 37.4093 13.7356C37.4067 15.6254 37.4387 16.0835 37.5673 15.9982C37.6714 15.9294 37.743 16.3471 37.7209 16.8924C37.7161 17.0108 37.7499 17.0669 37.7962 17.0174C37.8834 16.924 38.2912 17.6677 38.2912 17.9204C38.2912 18.2209 39.8923 20.0454 40.7498 20.7218C41.7869 21.5402 43.3389 22.0228 44.9172 22.0178C46.0148 22.0143 46.9013 21.8926 47.1939 21.7049C47.2847 21.6466 47.2574 21.7417 47.133 21.9162C46.9142 22.2237 46.9169 22.2246 47.2215 21.9473C47.3947 21.7898 47.5993 21.7162 47.6762 21.7839C47.7533 21.8515 47.7649 21.8395 47.7021 21.757C47.6393 21.6749 48.0005 21.3622 48.5048 21.0625C49.5129 20.4634 49.6398 20.419 49.4772 20.722C49.4136 20.8406 49.4258 20.8692 49.5064 20.7901C49.5826 20.7151 49.6451 20.568 49.6451 20.4633C49.6451 20.3584 49.7251 20.2725 49.8229 20.2725C49.9206 20.2725 50.0577 20.2055 50.1277 20.1238C50.203 20.0356 50.1615 20.0289 50.0261 20.1075C49.9003 20.1804 50.0323 19.9731 50.3193 19.6471C50.7495 19.1583 50.8834 19.088 51.0813 19.2469C51.2768 19.4038 51.2883 19.3995 51.1427 19.2232C50.9223 18.9563 51.1988 18.1843 51.458 18.3429C51.5505 18.3993 51.5775 18.3876 51.5181 18.317C51.4585 18.2462 51.5242 17.9586 51.6641 17.6779C51.8038 17.3971 51.9271 17.1308 51.9378 17.0858C51.9486 17.0408 51.9932 16.8938 52.0369 16.7589C52.4058 15.6235 52.4966 15.1035 52.4966 14.1258C52.4966 13.391 52.5571 12.9994 52.6709 12.9977C52.767 12.9963 52.7426 12.9239 52.6169 12.8368C52.4911 12.7496 52.4368 12.6773 52.4958 12.6758C52.555 12.6745 52.5016 12.3641 52.3773 11.9861C52.2528 11.6082 52.1843 11.206 52.2249 11.0926C52.2656 10.9789 52.232 10.8421 52.1506 10.7879C52.069 10.7339 52.0482 10.6098 52.1045 10.5122C52.1607 10.4146 52.1376 10.3807 52.0532 10.4367C51.8622 10.5632 51.5086 9.77259 51.6479 9.53089C51.7085 9.42548 51.6782 9.40162 51.5724 9.47173C51.4699 9.53971 51.353 9.46438 51.2944 9.29262C51.2388 9.12969 51.0335 8.82081 50.8384 8.6064C50.643 8.39183 50.4832 8.11172 50.4832 7.98393C50.4832 7.85597 50.4205 7.79289 50.3438 7.84371C50.2672 7.89453 50.1815 7.88048 50.1533 7.81249C50.1253 7.74451 49.812 7.47765 49.4573 7.21927C49.1025 6.96106 48.856 6.67376 48.9092 6.58127C48.9643 6.48566 48.9321 6.46197 48.8349 6.52636C48.7405 6.58894 48.464 6.52946 48.2201 6.39414C46.895 5.65939 44.3613 5.42227 42.8122 5.88803ZM91.4855 5.90061C91.6948 6.16977 91.6753 21.2864 91.4655 21.4255C91.1135 21.6587 91.7214 21.8202 92.962 21.8226L94.2163 21.8251L94.2574 14.2668C94.28 10.1097 94.2772 6.51116 94.2511 6.26995C94.204 5.83344 94.1977 5.83132 92.7776 5.77967C91.788 5.74373 91.3925 5.78066 91.4855 5.90061ZM131.953 5.83197C131.987 5.88917 131.908 6.03086 131.778 6.14689C131.647 6.26292 131.433 6.58012 131.302 6.8519C131.171 7.12367 130.987 7.43907 130.893 7.55265C130.443 8.09718 130.337 8.26093 130.438 8.26093C130.498 8.26093 130.406 8.42631 130.234 8.62863C130.062 8.83095 129.844 9.1591 129.749 9.35799C129.634 9.59593 129.484 9.68843 129.31 9.62845C129.109 9.55933 129.095 9.57534 129.252 9.69513C129.418 9.8226 129.377 9.98287 129.041 10.5278C128.811 10.8989 128.56 11.2025 128.483 11.2025C128.406 11.2025 128.385 11.2761 128.436 11.3659C128.488 11.4559 128.458 11.5294 128.369 11.5294C128.28 11.5294 128.207 11.6002 128.207 11.6866C128.207 11.7731 127.882 12.3575 127.484 12.9852L126.76 14.1263L126.492 13.7676C126.214 13.395 125.197 11.8141 124.931 11.3395C124.847 11.1901 124.547 10.7134 124.265 10.2802C123.982 9.84711 123.733 9.38103 123.711 9.24441C123.689 9.10795 123.603 9.01186 123.519 9.03082C123.436 9.04961 123.204 8.73714 123.006 8.33627C122.807 7.93523 122.594 7.60724 122.531 7.60724C122.468 7.60724 122.416 7.51458 122.416 7.40132C122.416 7.28808 122.242 6.99391 122.029 6.74764C121.816 6.50136 121.692 6.29985 121.753 6.29985C121.815 6.29985 121.732 6.19183 121.569 6.05994C121.377 5.90355 120.902 5.81825 120.207 5.81481L119.139 5.80958L119.17 13.7764L119.2 21.7433L120.503 21.7905L121.806 21.8378L121.824 17.133C121.833 14.5454 121.828 12.2629 121.813 12.0605C121.798 11.8582 121.87 11.6929 121.973 11.6929C122.078 11.6929 122.122 11.7358 122.074 11.7881C122.025 11.8405 122.099 12.0191 122.239 12.1851C122.73 12.7685 122.874 12.9881 122.874 13.1568C122.874 13.2504 122.942 13.3271 123.025 13.3271C123.109 13.3271 123.178 13.4373 123.178 13.5722C123.178 13.707 123.239 13.8173 123.312 13.8173C123.386 13.8173 123.531 14.0379 123.636 14.3076C123.74 14.5772 123.876 14.7979 123.939 14.7979C124.001 14.7979 124.239 15.1005 124.468 15.4704C124.695 15.8402 124.799 16.0876 124.697 16.0203C124.596 15.9527 124.862 16.375 125.29 16.9585C125.718 17.5418 126.036 18.0526 125.998 18.0936C125.96 18.1344 126.25 18.1422 126.643 18.1103C127.037 18.0786 127.411 17.9639 127.473 17.8552C127.668 17.514 127.973 17.053 128.132 16.857C128.388 16.5401 128.886 15.7216 129.112 15.2473C129.229 15.0002 129.421 14.7979 129.537 14.7979C129.654 14.7979 129.702 14.7161 129.644 14.6161C129.587 14.5163 129.6 14.3875 129.674 14.3301C129.748 14.2728 129.884 14.0788 129.976 13.899C130.07 13.7193 130.235 13.5722 130.345 13.5722C130.455 13.5722 130.557 13.3957 130.571 13.1802C130.587 12.9644 130.711 12.6998 130.848 12.5919C130.986 12.4841 131.054 12.348 131 12.2895C130.945 12.231 130.98 12.1831 131.078 12.1831C131.175 12.1831 131.255 12.0684 131.255 11.9283C131.255 11.7882 131.324 11.7189 131.408 11.7745C131.505 11.8382 131.56 13.7101 131.56 16.8502C131.56 20.717 131.603 21.8266 131.751 21.8325C133.959 21.9204 134.264 21.8992 134.22 21.6617C134.195 21.5268 134.17 17.9107 134.163 13.6259L134.151 5.8354L133.022 5.78163C132.401 5.75206 131.921 5.77477 131.953 5.83197ZM57.6461 13.7987V21.8251H59.0145H60.383L60.4242 18.5157L60.4655 15.2064L61.4953 15.158L62.5249 15.1097L62.8666 15.73C63.0545 16.0713 63.1912 16.4056 63.1703 16.4729C63.1496 16.5404 63.1942 16.5772 63.2697 16.5547C63.3451 16.5323 63.3997 16.5505 63.391 16.5955C63.3821 16.6405 63.4896 16.8243 63.6296 17.0041C64.1397 17.6589 64.6594 18.487 64.886 19.006C65.0135 19.2982 65.197 19.5371 65.2936 19.5371C65.3902 19.5371 65.4292 19.5802 65.3801 19.6328C65.331 19.6856 65.4295 19.8996 65.599 20.1084C65.7684 20.3174 65.8984 20.5336 65.8879 20.5884C65.8774 20.6435 66.0348 20.8666 66.2376 21.084C66.4405 21.3016 66.6307 21.551 66.6603 21.6381C66.7383 21.8687 69.6859 21.9549 69.6859 21.7268C69.6856 21.3698 69.3486 20.5197 69.2366 20.594C69.1736 20.6358 69.026 20.4702 68.9086 20.2261C68.7912 19.982 68.5445 19.6035 68.3605 19.3848C68.1762 19.1661 68.0603 18.9272 68.1027 18.8537C68.1451 18.7801 68.107 18.72 68.0183 18.72C67.9297 18.72 67.8569 18.6421 67.8569 18.5469C67.8569 18.4518 67.9362 18.4263 68.0329 18.4904C68.1428 18.5633 68.1674 18.5351 68.0985 18.4157C68.0379 18.3105 67.9298 18.2632 67.8583 18.3105C67.6759 18.4314 66.7631 16.9379 66.8876 16.722C66.953 16.6084 66.9172 16.5929 66.7878 16.6788C66.6365 16.779 66.6135 16.7354 66.6961 16.5048C66.7566 16.3355 66.7567 16.25 66.6962 16.3149C66.5316 16.4913 66.0282 15.9374 66.0282 15.58C66.0282 15.4089 65.9709 15.3068 65.9011 15.353C65.8312 15.3992 65.7741 15.3426 65.7741 15.2268C65.7741 15.1111 66.0885 14.9177 66.4727 14.7969C66.8568 14.6761 67.262 14.4614 67.3729 14.3199C67.5374 14.1102 67.5564 14.1079 67.4759 14.3076C67.4215 14.4425 67.49 14.4057 67.6277 14.2258C67.7657 14.0461 67.9473 13.9193 68.0314 13.944C68.1156 13.9686 68.141 13.9134 68.0878 13.8214C68.0348 13.7292 68.0754 13.6539 68.1782 13.6539C68.2809 13.6539 68.3213 13.607 68.2678 13.5498C68.2144 13.4924 68.2939 13.2535 68.4444 13.0187C69.4344 11.4741 69.2956 8.62585 68.1775 7.54088C68.0125 7.38073 67.9148 7.14541 67.9604 7.0181C68.014 6.86791 67.9685 6.81725 67.8304 6.87395C67.7133 6.92217 67.4829 6.83114 67.3182 6.67164C66.6412 6.01598 66.0849 5.93329 61.799 5.85141L57.6461 5.77216V13.7987ZM75.3121 13.5313C75.3052 17.7784 75.2692 21.4737 75.2322 21.7433C75.1883 22.0638 75.2118 22.1579 75.3 22.0153C75.3743 21.8952 75.5644 21.8117 75.7226 21.8298C75.8809 21.848 76.4391 21.8541 76.9628 21.8438C77.7165 21.829 77.9154 21.7718 77.9154 21.5703C77.9154 21.4266 77.9885 21.3639 78.083 21.4266C78.2032 21.5064 78.2055 21.4474 78.0908 21.2176C77.9938 21.0231 77.943 19.8128 77.9614 18.1337L77.9915 15.3698L81.3718 15.3259C85.2259 15.2757 84.8956 15.4414 84.7734 13.6196L84.6972 12.4834L81.4587 12.5024C78.9136 12.5174 78.2197 12.4766 78.2179 12.3115C78.2162 12.163 78.171 12.1733 78.0636 12.3465C77.9591 12.515 77.9201 11.9662 77.9383 10.5897L77.9651 8.58777H81.9661C84.4345 8.58777 85.9866 8.52665 86.018 8.42811C86.0459 8.34035 86.0462 7.71526 86.0187 7.03901L85.9685 5.80958H80.6465H75.3246L75.3121 13.5313ZM100.318 10.4398C100.318 12.9866 100.271 15.1214 100.212 15.1839C100.061 15.3469 100.016 15.7956 100.162 15.6992C100.229 15.6547 100.338 15.9668 100.402 16.3929C100.467 16.8189 100.549 17.2778 100.585 17.4126C100.619 17.5475 100.657 17.7866 100.669 17.9437C100.679 18.101 100.742 18.2297 100.808 18.2297C100.874 18.2297 100.927 18.3401 100.927 18.4749C100.927 18.6097 101.008 18.72 101.106 18.72C101.203 18.72 101.24 18.7661 101.188 18.8223C101.136 18.8785 101.295 19.1155 101.543 19.3491C101.791 19.5824 101.995 19.8795 101.995 20.0092C101.995 20.1391 102.04 20.1967 102.095 20.1374C102.15 20.078 102.282 20.1614 102.388 20.3225C102.493 20.4838 102.891 20.788 103.273 20.9984C103.654 21.2091 103.941 21.4259 103.91 21.4806C103.879 21.5353 104.06 21.5881 104.312 21.5983C104.564 21.6082 104.815 21.6865 104.869 21.7719C104.988 21.9624 108.104 22.0004 108.324 21.8143C108.41 21.741 108.651 21.6415 108.857 21.5933C109.676 21.4028 110.377 21.0816 110.377 20.8973C110.377 20.7904 110.499 20.6614 110.648 20.6108C110.905 20.5235 112.28 18.9459 112.283 18.7362C112.284 18.6824 112.416 18.3441 112.578 17.9846C113.003 17.0402 113.002 17.0596 112.983 10.6714L112.967 5.80958H111.678H110.389L110.335 11.08C110.305 13.9787 110.243 16.4974 110.198 16.6773C110.146 16.8806 109.991 16.9992 109.788 16.9912C109.609 16.9839 109.462 17.0391 109.462 17.1138C109.462 17.1883 109.563 17.2492 109.686 17.2492C109.834 17.2492 109.877 17.3459 109.814 17.5352C109.722 17.8106 109.157 18.4899 109.157 18.3257C109.157 18.2816 108.982 18.4205 108.765 18.6346C108.546 18.8524 108.243 18.9965 108.076 18.9621C107.912 18.9282 107.814 18.9622 107.857 19.0376C107.901 19.1129 107.42 19.1828 106.789 19.1931C105.92 19.207 105.499 19.1328 105.048 18.8864C104.344 18.5012 104.164 18.2479 104.452 18.0446C104.595 17.9429 104.529 17.9194 104.243 17.9703C103.899 18.0314 103.808 17.9738 103.732 17.6479C103.68 17.43 103.585 17.2867 103.52 17.3299C103.194 17.5458 103.062 15.6777 103.062 10.885V5.80958H101.69H100.318V10.4398ZM46.1399 8.64791C46.3074 8.68174 46.5001 8.71884 46.568 8.73028C46.6357 8.74188 46.6528 8.81788 46.6059 8.89942C46.5588 8.98081 46.6577 9.00908 46.8255 8.96201C46.9932 8.91495 47.1304 8.95008 47.1304 9.03997C47.1304 9.12985 47.2765 9.24425 47.4551 9.29442C47.6914 9.3606 47.7513 9.46438 47.6756 9.67617C47.6185 9.836 47.6202 9.91461 47.6799 9.85071C47.7394 9.78681 47.8973 9.82587 48.0308 9.93748C48.2489 10.1197 48.2512 10.1071 48.054 9.81345C47.9333 9.63368 48.0772 9.74399 48.3736 10.0585C48.9964 10.7195 49.3181 11.3034 49.1859 11.5328C49.1351 11.6208 49.158 11.6929 49.2367 11.6929C49.5345 11.6929 49.8631 13.305 49.7199 14.0624C49.7028 14.1523 49.7005 14.4192 49.7147 14.6554C49.753 15.2961 49.1248 16.6359 48.8408 16.5191C48.6537 16.442 48.6459 16.4692 48.7984 16.6663C49.0106 16.9405 48.8724 17.3119 48.6203 17.1449C48.5264 17.0827 48.4984 17.1106 48.5554 17.2096C48.6107 17.3054 48.3885 17.611 48.0617 17.8885C47.405 18.4462 47.2056 18.5179 47.3381 18.1481C47.3861 18.0132 47.3592 17.9029 47.2781 17.9029C47.1969 17.9029 47.1304 18.0783 47.1304 18.2924C47.1304 18.6964 46.8123 18.8947 46.0636 18.957C45.854 18.9743 45.5707 19.0431 45.434 19.1096C44.9306 19.3543 42.8877 18.8732 42.6651 18.4574C42.5981 18.3322 42.438 18.2297 42.3095 18.2297C42.0203 18.2297 41.0981 17.2317 40.9619 16.7714C40.9067 16.5847 40.8084 16.4321 40.7435 16.4321C40.5158 16.4321 40.2147 15.0309 40.1816 13.8173C40.1516 12.7183 40.2014 12.4744 40.6629 11.4592C41.1494 10.3884 42.1741 9.16956 42.4397 9.34556C42.5051 9.38871 42.5584 9.33837 42.5584 9.23362C42.5584 9.12854 42.6645 9.08671 42.795 9.14047C42.9251 9.19391 42.9923 9.16972 42.9443 9.08654C42.8964 9.00352 43.1844 8.82604 43.5841 8.69221C44.2319 8.47534 45.2026 8.45867 46.1399 8.64791ZM64.4706 8.5309C65.0841 8.60984 65.4027 8.75954 65.8111 9.16073C66.1057 9.45016 66.3328 9.75217 66.3157 9.83192C66.2984 9.91166 66.337 10.1055 66.4012 10.2629C66.4653 10.4202 66.4653 10.6775 66.4012 10.8348C66.337 10.9923 66.2912 11.1625 66.2994 11.2135C66.3371 11.4484 65.554 12.211 65.1465 12.3364C64.8967 12.4132 63.7241 12.4872 62.5407 12.5008L60.3893 12.5253V10.4748V8.42435L62.0276 8.42582C62.9287 8.42648 64.028 8.47387 64.4706 8.5309ZM43.2614 9.27137C43.3055 9.34769 43.4053 9.36796 43.4833 9.31615C43.6827 9.1841 43.6603 9.13246 43.4033 9.13246C43.2813 9.13246 43.2174 9.19506 43.2614 9.27137ZM126.284 13.1861C126.304 13.2929 126.436 13.3986 126.579 13.421C126.721 13.4434 126.798 13.3936 126.75 13.3101C126.702 13.2265 126.605 13.1968 126.533 13.2437C126.463 13.2906 126.37 13.2531 126.327 13.1606C126.284 13.0679 126.265 13.0793 126.284 13.1861ZM123.864 15.1247C123.915 15.2146 123.989 15.2881 124.026 15.2881C124.062 15.2881 124.093 15.2146 124.093 15.1247C124.093 15.0348 124.02 14.9613 123.931 14.9613C123.843 14.9613 123.812 15.0348 123.864 15.1247ZM41.2534 17.0483C41.3056 17.1041 41.4552 17.1665 41.5863 17.1872C41.7172 17.2079 41.7818 17.1791 41.7298 17.1232C41.6777 17.0674 41.5281 17.0051 41.397 16.9843C41.2661 16.9637 41.2015 16.9924 41.2534 17.0483ZM125.769 18.5662C125.769 18.6613 125.837 18.6938 125.921 18.6383C126.005 18.5827 126.074 18.5049 126.074 18.4653C126.074 18.4255 126.005 18.3931 125.921 18.3931C125.837 18.3931 125.769 18.4711 125.769 18.5662ZM102.23 20.8333C102.181 20.9169 102.201 21.0239 102.272 21.0712C102.342 21.1184 102.401 21.05 102.401 20.919C102.401 20.6435 102.353 20.6195 102.23 20.8333Z" fill="#6B7280"/>
</g>
<defs>
<clipPath id="clip0_10632_37904">
<rect width="131.278" height="26.0625" fill="white" transform="translate(3.18143 0.301331)"/>
</clipPath>
</defs>
</svg>
