<svg width="155" height="27" viewBox="0 0 155 27" fill="none" xmlns="http://www.w3.org/2000/svg">
<g clip-path="url(#clip0_10632_37913)">
<path fill-rule="evenodd" clip-rule="evenodd" d="M21.8187 1.59431C20.5447 2.38483 20.2733 2.85529 19.2147 6.10906L18.2297 9.13752L16.5486 6.15658L14.8675 3.17592L11.4259 3.09792L7.98446 3.01993L7.69364 3.79675C7.53363 4.22416 7.15689 5.39121 6.85643 6.39054C5.31721 11.5079 3.71466 16.6654 3.48635 17.2356C3.34479 17.5887 3.22913 18.4543 3.22913 19.1594C3.22913 21.5569 4.88814 23.1626 7.36536 23.1626C8.34193 23.1626 8.68894 22.996 9.54791 22.1143C10.1643 21.4815 10.7368 20.512 10.9918 19.6684C11.2246 18.8996 11.6332 17.5347 11.9004 16.6352L12.3862 14.9996L14.0218 17.971L15.6574 20.9422L19.2663 20.8645C22.8478 20.787 22.8767 20.7812 23.0846 20.0877C23.1998 19.7033 23.6886 18.068 24.1706 16.4537C24.6525 14.8395 25.6131 11.7576 26.3049 9.60518C27.0019 7.43656 27.5472 5.22153 27.528 4.63731C27.4371 1.88838 24.1596 0.141578 21.8187 1.59431ZM24.9857 3.59521C26.1396 4.76645 25.4096 6.94961 23.8641 6.94961C22.7247 6.94961 22.2546 6.68713 21.8013 5.79766C21.4378 5.08401 21.4383 4.90064 21.8057 4.17944C22.0337 3.73219 22.3777 3.30198 22.5702 3.22316C23.3619 2.90001 24.4685 3.07025 24.9857 3.59521ZM132.943 4.85312C132.943 6.59852 132.329 7.50868 131.152 7.50868C130.483 7.50868 130.464 7.56458 130.464 9.46542V11.4221H131.565H132.667V14.6457C132.667 18.1192 132.95 19.2421 134.077 20.2584C135.232 21.2978 137.316 21.7489 138.932 21.3092C139.499 21.1549 139.552 20.9755 139.552 19.2163V17.2923H138.48C137.149 17.2923 137.073 17.1135 137.073 13.915V11.4221H138.313H139.552V9.46542V7.50868H138.313H137.073V5.8544C137.073 3.35733 137.037 3.31568 134.841 3.31568H132.943V4.85312ZM16.5866 9.09503L17.737 11.2424L17.2467 12.6602C16.9771 13.4398 16.5543 14.8009 16.3073 15.6851C16.0606 16.5692 15.7521 17.2923 15.6219 17.2923C15.4918 17.2923 14.8716 16.3478 14.244 15.1936L13.1025 13.0948L14.1275 9.87716C14.6912 8.10716 15.2162 6.72403 15.2944 6.80342C15.3723 6.88253 15.954 7.91372 16.5866 9.09503ZM38.8325 7.30546C38.3449 7.49414 37.6941 7.86732 37.3868 8.13484C36.8519 8.60054 36.828 8.59746 36.828 8.06495C36.828 7.55899 36.641 7.50868 34.7625 7.50868H32.697V14.3572V21.2058H34.7625H36.828V17.334C36.828 12.1369 37.2163 11.1427 39.2457 11.1427C40.7946 11.1427 40.959 11.6748 40.959 16.6855V21.2058H43.1828H45.4067L45.3172 15.6403L45.2277 10.0748L44.3764 9.00139C43.9082 8.41101 43.1726 7.75271 42.7416 7.53831C41.6601 7.00076 39.8934 6.89538 38.8325 7.30546ZM52.8012 7.33314C49.3468 8.49683 47.7095 10.7152 47.7201 14.2174C47.7253 15.9855 47.8486 16.541 48.5069 17.7619C49.9192 20.3817 51.8646 21.5164 54.9435 21.5164C56.7754 21.5164 57.152 21.4185 58.4961 20.5925C62.5782 18.0837 63.2498 12.4966 59.8927 8.97567C58.2726 7.27583 55.1305 6.5482 52.8012 7.33314ZM93.5604 7.14025C93.3332 7.22076 92.6827 7.52322 92.1145 7.81253C91.2506 8.25224 91.0818 8.27041 91.0818 7.92351C91.0818 7.59366 90.6588 7.50868 89.0163 7.50868H86.9508V16.873V26.2374H89.154H91.3572V23.4385V20.6392L92.3547 21.0624C94.6452 22.0338 97.6727 21.278 99.375 19.3101C100.671 17.8119 101.064 16.6005 101.053 14.1306C101.039 10.528 99.7084 8.38725 96.8486 7.36304C95.7011 6.95213 94.3497 6.86044 93.5604 7.14025ZM108.018 7.27639C105.449 8.15524 103.576 9.88051 102.973 11.9272C101.952 15.3871 103.607 19.2834 106.801 20.9377C108.362 21.7456 111.318 21.7414 112.97 20.9291C117.402 18.7517 118.421 12.9962 115.065 9.11543C113.546 7.35941 110.273 6.50515 108.018 7.27639ZM124.75 7.5056C124.257 7.81029 123.855 7.93553 123.855 7.78402C123.855 7.62608 122.915 7.50868 121.651 7.50868H119.448V14.3572V21.2058H121.651H123.855V16.2707C123.855 11.5071 123.872 11.3517 124.358 11.7981C125.156 12.531 126.945 12.4021 127.783 11.5515C128.729 10.5908 128.921 9.64208 128.394 8.515C127.667 6.96219 126.258 6.57197 124.75 7.5056ZM144.928 7.3963C142.619 8.2542 141.203 10.5643 141.767 12.5515C142.267 14.3078 143.583 15.3772 146.049 16.0294C147.836 16.5016 148.469 16.9712 148.217 17.6368C147.79 18.7666 145.465 18.2763 145.133 16.9863C145.017 16.5351 144.829 16.4842 143.858 16.6402C142.211 16.9049 141.491 17.1238 141.486 17.3622C141.459 18.4409 141.593 18.8004 142.347 19.6718C143.495 21.0001 144.738 21.4853 146.988 21.4853C150.528 21.4853 152.497 19.8213 152.497 16.8272C152.497 14.622 151.116 13.1946 148.365 12.5543C146.409 12.0989 146.024 11.8895 146.024 11.2824C146.024 9.98924 148.41 10.0723 148.593 11.3718C148.676 11.9642 148.773 11.9955 149.969 11.8174C152.255 11.4766 152.501 11.3039 152.213 10.247C151.725 8.4658 149.154 6.90936 146.798 6.96918C146.372 6.98009 145.531 7.1724 144.928 7.3963ZM62.7155 7.86788C62.7155 8.19829 63.5633 11.0232 65.837 18.2707L66.7138 21.066L68.951 21.1468C71.1786 21.2271 71.1889 21.2243 71.375 20.4715C71.7437 18.9794 73.8059 13.0817 73.9186 13.1961C73.9819 13.2604 74.6203 15.0574 75.3371 17.1894L76.6406 21.066L78.7284 21.1471C81.1801 21.2422 80.7378 21.8739 82.6989 15.4754C83.4058 13.1693 84.218 10.5383 84.5036 9.62894C84.7891 8.71961 85.023 7.86508 85.023 7.73035C85.023 7.59534 84.0649 7.52182 82.8936 7.56682L80.7642 7.64844L79.8144 11.0728C79.2919 12.9559 78.7929 14.497 78.7056 14.497C78.6183 14.497 78.1223 13.2075 77.6034 11.6318C76.1168 7.11649 76.4702 7.50868 73.8861 7.50868H71.6501L70.448 11.2061C69.1272 15.268 69.1764 15.2501 68.3228 11.9812C68.1021 11.1356 67.7328 9.78352 67.5021 8.97623L67.0829 7.50868H64.8992C63.3047 7.50868 62.7155 7.60539 62.7155 7.86788ZM56.2004 11.4529C57.1147 11.8758 57.5747 12.8511 57.5747 14.3668C57.5747 16.6648 55.7794 18.0812 53.8794 17.2826C52.2014 16.577 51.5426 14.5281 52.4026 12.6884C53.0614 11.2793 54.6838 10.7515 56.2004 11.4529ZM96.0602 11.9597C97.5788 13.501 96.9795 16.7229 95.0746 17.2568C92.8292 17.8861 91.3572 16.6243 91.3572 14.0701C91.3572 12.296 92.4423 11.1427 94.1112 11.1427C95.0084 11.1427 95.4287 11.319 96.0602 11.9597ZM111.292 11.4585C112.524 12.0282 113.09 14.6533 112.302 16.1468C111.896 16.9169 110.231 17.6697 109.402 17.4584C108.212 17.1557 107.37 16.2111 107.188 14.9784C106.774 12.1668 108.894 10.3493 111.292 11.4585ZM8.33642 17.9786C9.39644 19.0543 9.20586 20.3865 7.89303 21.0756C6.62619 21.7405 4.88153 20.639 4.88153 19.1742C4.88153 18.4247 6.12469 17.2923 6.94703 17.2923C7.33947 17.2923 7.96463 17.6012 8.33642 17.9786Z" fill="#6B7280"/>
</g>
<defs>
<clipPath id="clip0_10632_37913">
<rect width="149.618" height="26.0625" fill="white" transform="translate(2.87848 0.301331)"/>
</clipPath>
</defs>
</svg>
