<svg width="30" height="19" viewBox="0 0 30 19" fill="none" xmlns="http://www.w3.org/2000/svg">
<path d="M29.9937 9.29122C29.9909 11.1256 29.4442 12.918 28.4228 14.4417C27.4015 15.9655 25.9513 17.1522 24.2556 17.8519C22.5599 18.5516 20.6948 18.7329 18.8961 18.3728C17.0974 18.0127 15.4458 17.1274 14.1502 15.8288C12.8545 14.5303 11.973 12.8767 11.6169 11.0772C11.2609 9.27771 11.4463 7.41304 12.1498 5.71892C12.8533 4.02479 14.0433 2.57727 15.5694 1.55934C17.0954 0.541408 18.889 -0.00123992 20.7234 -5.5281e-06C21.9426 0.000678442 23.1498 0.241576 24.2759 0.708925C25.4021 1.17627 26.4251 1.86092 27.2866 2.72374C28.148 3.58657 28.8311 4.61067 29.2967 5.73753C29.7622 6.8644 30.0012 8.07196 30 9.29122H29.9937Z" fill="#F79F1A"/>
<path d="M18.5533 9.29123C18.5504 11.1256 18.0037 12.918 16.9823 14.4417C15.961 15.9655 14.5108 17.1522 12.8151 17.8519C11.1194 18.5516 9.25431 18.7329 7.45561 18.3728C5.65692 18.0127 4.00536 17.1274 2.7097 15.8288C1.41405 14.5303 0.532481 12.8767 0.176428 11.0772C-0.179625 9.27772 0.00582534 7.41305 0.709337 5.71892C1.41285 4.0248 2.60284 2.57728 4.12888 1.55935C5.65491 0.541415 7.44849 -0.0012323 9.28288 2.10129e-06C10.5021 0.000686072 11.7093 0.241584 12.8355 0.708933C13.9616 1.17628 14.9846 1.86093 15.8461 2.72375C16.7076 3.58657 17.3906 4.61067 17.8562 5.73754C18.3217 6.86441 18.5607 8.07197 18.5595 9.29123H18.5533Z" fill="#EA001B"/>
<path d="M15.0003 1.97732C13.8933 2.84814 12.9985 3.95888 12.3831 5.22581C11.7678 6.49274 11.4481 7.88282 11.4481 9.29127C11.4481 10.6997 11.7678 12.0898 12.3831 13.3567C12.9985 14.6237 13.8933 15.7344 15.0003 16.6052C16.1089 15.7355 17.005 14.6249 17.6206 13.3575C18.2362 12.0901 18.5553 10.6992 18.5536 9.29022C18.5554 7.88149 18.2364 6.49084 17.6208 5.22376C17.0051 3.95668 16.109 2.84646 15.0003 1.97732V1.97732Z" fill="#FF5F01"/>
</svg>
